<svg width="24" height="22" viewBox="0 0 24 22" fill="none" xmlns="http://www.w3.org/2000/svg">
<path d="M11.7363 21.3789L11.2957 21.0807C11.1853 21.0059 8.56522 19.2226 5.90248 16.6803C2.2207 13.1645 0.353516 10.0242 0.353516 7.34703C0.353516 5.12971 1.03633 3.30874 2.32866 2.08084C3.49988 0.967379 5.11529 0.378906 7 0.378906C8.06127 0.378906 9.11537 0.735164 10.1332 1.43807C10.6989 1.82858 11.2395 2.31974 11.7287 2.88441C12.2179 2.31974 12.7585 1.82858 13.3242 1.43807C14.3417 0.735164 15.3958 0.378906 16.4566 0.378906C20.1217 0.378906 23.1035 3.50462 23.1035 7.34703C23.1035 9.911 21.2375 13.0162 17.5577 16.5759C14.8982 19.1486 12.2821 20.9955 12.1717 21.0728L11.7363 21.3789ZM7 2.04952C5.51765 2.04952 4.27233 2.48805 3.39909 3.31835C2.43542 4.23384 1.94702 5.58912 1.94702 7.34703C1.94702 9.50378 3.68592 12.3041 6.9757 15.4449C8.91539 17.2968 10.8706 18.7573 11.7207 19.3675C12.5725 18.736 14.544 17.2199 16.4917 15.3342C19.7751 12.155 21.5104 9.39311 21.5104 7.34703C21.51 4.42596 19.2433 2.04952 16.4566 2.04952C14.3735 2.04952 12.8039 4.07639 12.3725 4.69744L11.7283 5.62463L11.0841 4.69744C10.6527 4.07639 9.08311 2.04952 7 2.04952Z" fill="black"/>
</svg>
