<svg width="26" height="23" viewBox="0 0 26 23" fill="none" xmlns="http://www.w3.org/2000/svg">
<path d="M12.9788 7.16406L12.9766 12.661C12.9766 12.8697 13.0581 13.0692 13.2032 13.2165L17.0741 17.1482L18.1678 16.0371L14.5234 12.3356L14.5257 7.16406H12.9788Z" fill="black"/>
<path d="M14.5274 0.878906C9.08319 0.878906 4.57747 4.98626 3.82284 10.3075H0.605469L4.47265 14.236L8.33984 10.3075H5.38581C6.12575 5.85542 9.93743 2.45035 14.5274 2.45035C19.6453 2.45035 23.8086 6.67969 23.8086 11.8789C23.8086 17.0782 19.6454 21.3075 14.5274 21.3075C11.6504 21.3075 8.98265 19.9847 7.20839 17.6782L5.98932 18.645C8.05885 21.3351 11.1707 22.8789 14.5274 22.8789C20.4981 22.8789 25.3555 17.9436 25.3555 11.8789C25.3555 5.81423 20.4981 0.878952 14.5274 0.878906V0.878906Z" fill="black"/>
</svg>
