<svg width="37" height="37" viewBox="0 0 37 37" fill="none" xmlns="http://www.w3.org/2000/svg">
<g clip-path="url(#clip0_610_32197)">
<path d="M18.4997 36.9993C28.7168 36.9993 36.9993 28.7168 36.9993 18.4997C36.9993 8.28258 28.7168 0 18.4997 0C8.28258 0 0 8.28258 0 18.4997C0 28.7168 8.28258 36.9993 18.4997 36.9993Z" fill="white"/>
<path d="M19.9923 24.7726C18.5937 24.6645 18.006 23.9709 16.9092 23.3051C16.3064 26.468 15.5697 29.4999 13.3875 31.0838C12.7131 26.3034 14.3762 22.7129 15.1485 18.9017C13.8321 16.6856 15.3068 12.225 18.0835 13.3242C21.501 14.6756 15.1248 21.5642 19.4053 22.4246C23.874 23.3229 25.6983 14.6707 22.9269 11.8564C18.9228 7.79321 11.2717 11.764 12.2126 17.5806C12.4417 19.0026 13.9112 19.4342 12.7996 21.3964C10.2369 20.8289 9.47246 18.8077 9.57073 16.1131C9.72935 11.7024 13.534 8.61402 17.3501 8.18663C22.1763 7.64646 26.7061 9.95884 27.3314 14.4985C28.0348 19.6222 25.1526 25.171 19.9923 24.7726Z" fill="#003153"/>
</g>
<defs>
<clipPath id="clip0_610_32197">
<rect width="37" height="37" fill="white"/>
</clipPath>
</defs>
</svg>
