<svg width="20" height="20" viewBox="0 0 20 20" fill="none" xmlns="http://www.w3.org/2000/svg">
<path d="M19.9978 18.7137L14.8688 13.5448C15.976 12.1204 16.6399 10.3291 16.6399 8.38459C16.6377 3.76173 12.9072 0 8.31994 0C3.73273 0 0 3.76173 0 8.38459C0 13.0074 3.73273 16.7692 8.31994 16.7692C10.3287 16.7692 12.1726 16.0483 13.6117 14.8505L18.7215 20L19.9978 18.7137ZM1.71324 8.38459C1.71324 4.7135 4.67716 1.72656 8.31994 1.72656C11.9627 1.72656 14.9266 4.7135 14.9266 8.38459C14.9266 12.0557 11.9627 15.0405 8.31994 15.0405C4.67716 15.0405 1.71324 12.0557 1.71324 8.38459Z" fill="#1D1D1B"/>
</svg>
