<svg width="26" height="24" viewBox="0 0 26 24" fill="none" xmlns="http://www.w3.org/2000/svg">
<path d="M19.7669 18.1115H9.76615L9.14805 15.6237H22.2176L25.0202 4.34364H6.34552L5.36048 0.378906H0.103516V1.85575H4.21451L8.26794 18.1705C7.08796 18.4255 6.20054 19.4828 6.20054 20.7452C6.20054 22.1974 7.37469 23.3789 8.81796 23.3789C10.2612 23.3789 11.4354 22.1974 11.4354 20.7452C11.4354 20.3304 11.3393 19.9378 11.1687 19.5884H17.4162C17.2456 19.9378 17.1495 20.3304 17.1495 20.7452C17.1495 22.1974 18.3237 23.3789 19.7669 23.3789C21.2101 23.3789 22.3843 22.1974 22.3843 20.7452C22.3843 19.293 21.2101 18.1115 19.7669 18.1115ZM6.71241 5.82048H23.1403L21.0716 14.1468H8.78112L6.71241 5.82048ZM8.81796 21.9021C8.18399 21.9021 7.66824 21.3831 7.66824 20.7452C7.66824 20.1073 8.18399 19.5884 8.81796 19.5884C9.45192 19.5884 9.96767 20.1073 9.96767 20.7452C9.96767 21.3831 9.45192 21.9021 8.81796 21.9021ZM19.7669 21.9021C19.1329 21.9021 18.6172 21.3831 18.6172 20.7452C18.6172 20.1073 19.1329 19.5884 19.7669 19.5884C20.4009 19.5884 20.9166 20.1073 20.9166 20.7452C20.9165 21.3831 20.4008 21.9021 19.7669 21.9021Z" fill="black"/>
</svg>
