<svg width="37" height="37" viewBox="0 0 37 37" fill="none" xmlns="http://www.w3.org/2000/svg">
<path fill-rule="evenodd" clip-rule="evenodd" d="M37 18.5C37 28.7173 28.7173 37 18.5 37C8.28273 37 0 28.7173 0 18.5C0 8.28273 8.28273 0 18.5 0C28.7173 0 37 8.28273 37 18.5ZM24.3152 10.5859H22.2195C20.5661 10.5859 20.2423 11.3714 20.2423 12.5248V15.07H24.2032L23.6858 19.0684H20.2423V30.7184H16.1131V19.0749H12.6826V15.0765H16.1131V12.1324C16.1131 8.72 18.1965 6.86133 21.2403 6.86133C22.6994 6.86133 23.9532 6.96756 24.3152 7.01742V10.5859Z" fill="white"/>
</svg>
