<svg width="22" height="22" viewBox="0 0 22 22" fill="none" xmlns="http://www.w3.org/2000/svg">
<path d="M18.0281 13.1276C16.8651 11.9646 15.4771 11.1086 13.9625 10.5989C15.3592 9.56657 16.2668 7.90847 16.2668 6.04222C16.2669 2.91945 13.7263 0.378906 10.6035 0.378906C7.48071 0.378906 4.94016 2.91945 4.94016 6.04222C4.94016 7.90851 5.84775 9.56661 7.24454 10.5989C5.72992 11.1085 4.34195 11.9646 3.17887 13.1276C1.19572 15.1108 0.103516 17.7476 0.103516 20.5523C0.103516 21.0088 0.4736 21.3789 0.930144 21.3789H20.2768C20.7334 21.3789 21.1035 21.0088 21.1035 20.5523C21.1035 17.7476 20.0113 15.1108 18.0281 13.1276ZM6.5935 6.04222C6.5935 3.83107 8.39236 2.0322 10.6036 2.0322C12.8148 2.0322 14.6136 3.83107 14.6136 6.04222C14.6136 8.25337 12.8148 10.0522 10.6036 10.0522C8.39236 10.0523 6.5935 8.25337 6.5935 6.04222ZM1.79512 19.7256C2.21324 15.2336 6.00415 11.7055 10.6035 11.7055C15.2029 11.7055 18.9938 15.2336 19.4119 19.7256H1.79512Z" fill="black"/>
</svg>
